PathFileType	4	(X/Y/Z)	Patient4_TMGait_0pt5_01_right_15.trc.trc
DataRate	CameraRate	NumFrames	NumMarkers	Units	OrigDataRate	OrigDataStartFrame	OrigNumFrames
74.468085106383	74.468085106383	7	33	mm	74.468085106383	89	       141
Frame#	Time	L.ASIS			Sacral			L.Shoulder			Chest			R.Shoulder			Neck			R.ASIS			R.Thigh.Superior			R.Thigh.Lateral			R.Thigh.Inferior			R.Patella			L.Thigh.Superior			L.Thigh.Lateral			L.Thigh.Inferior			L.Patella			L.Shank.Superior			L.Shank.Lateral			L.Shank.Inferior			R.Shank.Superior			R.Shank.Lateral			R.Shank.Inferior			R.Heel			R.Midfoot.Superior			R.Midfoot.Lateral			R.Toe			L.Heel			L.Midfoot.Lateral			L.Midfoot.Superior			L.Toe			L.Elbow			L.Wrist			R.Elbow			R.Wrist			
		X1	Y1	Z1	X2	Y2	Z2	X3	Y3	Z3	X4	Y4	Z4	X5	Y5	Z5	X6	Y6	Z6	X7	Y7	Z7	X8	Y8	Z8	X9	Y9	Z9	X10	Y10	Z10	X11	Y11	Z11	X12	Y12	Z12	X13	Y13	Z13	X14	Y14	Z14	X15	Y15	Z15	X16	Y16	Z16	X17	Y17	Z17	X18	Y18	Z18	X19	Y19	Z19	X20	Y20	Z20	X21	Y21	Z21	X22	Y22	Z22	X23	Y23	Z23	X24	Y24	Z24	X25	Y25	Z25	X26	Y26	Z26	X27	Y27	Z27	X28	Y28	Z28	X29	Y29	Z29	X30	Y30	Z30	X31	Y31	Z31	X32	Y32	Z32	X33	Y33	Z33	

89	20.591714285714	811.359497756485	959.691230975213	298.812293154442	604.960320495650	1001.287683986905	468.764936614196	754.271303547380	1434.880207263095	288.352402779435	872.940895816469	1364.036010816800	437.664416859500	803.873783960747	1433.229971486629	620.593938915975	767.247618701721	1492.754690645841	439.638181357416	837.725376179792	935.800888759894	571.159715908566	866.807997373643	729.000599883413	551.750218973547	782.916187689075	624.340750394483	617.981702498719	858.772759537160	561.671384823923	543.466340100812	847.384065302205	455.113412540115	563.531841998211	881.933758100516	761.031931660888	334.173965032474	809.537810258045	634.715721618548	276.847823178389	903.248516437279	567.559438022104	340.978677839910	912.684817893749	495.200669597282	350.714254022594	885.958480948231	420.120967709451	344.217189523694	799.411603383271	303.677130898292	294.190754718045	851.425732305631	194.209392599637	365.522338363813	774.171592987099	385.793239195969	568.377402256389	657.686816156726	335.795543678975	628.767764511523	649.362837450724	228.140005444033	575.706329429369	450.955537892917	140.191077915026	548.486406406726	626.622939818450	113.687796930636	585.871905609222	520.152556838561	91.986836617474	619.971066056748	709.907766429557	33.022315443572	609.346732092565	725.350804867926	37.545754276876	406.786912592399	799.454238930294	35.392743159643	325.929340940521	882.126181809310	96.645181104926	352.781142351037	1010.817583569554	45.503242816409	324.302096829835	698.599267743553	1082.315843146206	171.951312634118	800.838234981999	841.372537895536	155.131371560529	866.956904313171	1087.945536989566	721.998252602508	1094.029406692594	994.861734328430	649.644866367119	
90	20.605142857143	810.776391394893	959.921389341863	296.236457138591	603.887751712364	1001.434055027670	465.611656377246	755.002363457579	1435.253716612566	285.646586178241	872.644107294471	1364.095597742759	435.633789688957	802.569253936647	1433.239927178785	618.227440042819	767.114752456367	1493.025263119547	437.028498316291	836.343805666712	936.045244462478	568.592510510492	870.737091239511	731.269383300871	549.247317564724	790.204910615205	624.989799433355	616.396529537977	867.852590587791	563.580986256372	541.959033752865	857.902405929097	455.773803682626	563.036958967351	880.087113254621	760.197865137309	331.248378860371	806.291133710641	634.555083641873	274.605517949396	899.249260465086	566.703997371768	338.854092268614	907.974794572638	494.443990402546	348.975357136599	881.031646657420	419.455915894511	342.716831613060	794.140749511764	303.177326192413	292.995033305456	845.394826577784	193.811178361125	364.962401361649	782.920182038761	387.164477622448	567.854286660137	664.596695806729	341.106698795608	627.944273193229	653.433076391249	233.388003713751	575.676753182724	452.727854506287	154.425406246370	548.182938567205	626.328267991664	117.673569340326	585.855754447189	518.828982906824	102.178017357364	619.744532307865	704.149361584317	32.037600004105	609.535178933380	718.588459330431	37.522916489447	406.699091358456	792.685950793369	35.309500991051	325.820086637100	875.457564754446	96.467723314981	352.699631958185	1004.152809651006	45.065657849408	324.266577976792	704.658444934298	1082.632934787800	166.571025209077	816.580534257777	845.969350128679	149.761638483458	858.124483609993	1085.946351209500	719.018801024484	1080.788483434691	977.961650469300	651.702090968136	
91	20.618571428571	810.105990467682	960.074940360522	293.791719713051	602.717104197382	1001.496203217472	462.571812975813	755.647339355307	1435.543109506232	283.071050966671	872.259054072577	1364.072541286942	433.738973637515	801.146338616112	1433.145653938841	615.999939551448	766.955175965442	1493.233573417587	434.545992318863	834.877460892773	936.282203107340	566.192881431744	874.669319683493	733.823877574199	546.757244963380	797.607650649940	625.923274606165	614.829134934518	877.000701008700	565.927354532740	540.393736064697	868.625256698784	456.927161613705	562.252941836685	878.177071344146	759.372372255375	328.438003042862	803.022330358647	634.414400703000	272.404988331763	895.254977815394	565.861869478678	336.730355198146	903.272357350185	493.692520182972	347.208500820401	876.115918904700	418.801377189423	341.196918904915	788.869766214331	302.698498650164	291.765174990814	839.373980569019	193.423460077089	364.358935463092	792.012932902336	388.912495556444	567.076869799023	672.093887052912	346.659133742587	626.991455551306	658.112768210019	238.997964861504	575.402380703537	455.573508372271	168.979937439327	547.631939299587	626.726136800329	122.284086579405	585.634829746834	518.461732141620	112.963212350611	619.352125679746	699.044647606638	31.172403882645	609.713222046895	711.848385586280	37.511461505167	406.592118842900	785.937796293095	35.236526632498	325.693827517918	868.802773959262	96.310009411328	352.588025951308	997.500572726176	44.663331776207	324.215111809022	710.872750588977	1083.004813513119	161.208315546199	832.459611218257	851.108265108417	144.521645555951	848.930183795572	1084.002474336640	716.254155943485	1065.986204828585	961.059884602618	654.198601349763	
92	20.632000000000	809.376314399824	960.181969906900	291.498037842622	601.464498480276	1001.514828563711	459.652492717953	756.206256610396	1435.773732750181	280.626653146837	871.787807193250	1364.006200972608	431.983832513902	799.605407813340	1432.994301574964	613.907112249307	766.771226893957	1493.411904859207	432.188778666390	833.347019285367	936.554295323132	563.991358708511	878.490036236479	736.665786585598	544.322396454695	804.939162471737	627.178421368229	613.283217280128	886.017648905898	568.731063157233	538.795564786023	879.372056447054	458.604099164057	561.212648963808	876.209795054053	758.557469567670	325.744313564678	799.702514928900	634.291318855293	270.291335343800	891.245423708931	565.029026900298	334.640326054568	898.557213155001	492.952588272998	345.464632998425	871.191223861845	418.169174441089	339.700282082528	783.581575155141	302.256046209719	290.540929983949	833.353765938606	193.056650614636	363.734959662905	801.286956499212	391.052055589141	566.068339484538	680.020160368103	352.356375402339	625.903185419624	663.344434859176	244.847617693656	574.878695068765	459.436577175693	183.363833603092	546.831564900279	627.930153869403	127.415355794501	585.208084074327	519.151136309051	123.965496738707	618.775327399632	694.907591129476	30.584069317189	609.821801024032	705.127145608461	37.513088578206	406.470228238954	779.206944104227	35.174500882574	325.555805400651	862.159016718006	96.172491954629	352.450550327015	990.856433634437	44.298263625373	324.148130508300	717.212805932344	1083.446965560942	155.931997749410	848.364226861910	856.788513934012	139.454214394449	839.469781370994	1082.214672822168	713.736482339005	1049.634318505793	944.390606153341	657.048828320082	
93	20.645428571429	808.619593396207	960.279233123298	289.368556992399	600.151689633527	1001.537145542004	456.860594754559	756.693596821435	1435.979181594220	278.309099718107	871.239575143729	1363.940725966445	430.370061456521	797.953373176794	1432.840570359965	611.938673178424	766.567296106919	1493.597457693747	429.950498896247	831.772299802376	936.903685113083	562.007523785960	882.093510539907	739.783884169359	541.985463086951	812.032671393652	628.774858498054	611.773715168158	894.724854293321	571.991978129578	537.200720197985	889.975863556714	460.818837143963	559.977003915311	874.179857953478	757.753034842840	323.175726911260	796.296949360580	634.189557915630	268.304452168154	887.180423942279	564.204300630024	332.624072550570	893.784614367030	492.231473052135	343.793938263807	866.216994404881	417.573954195872	338.265483253312	778.242033531238	301.863671829767	289.359991140871	827.316086211022	192.722804090667	363.112215608567	810.600610747513	393.578709125204	564.879256935232	688.226643176971	358.076833980928	624.688961029811	669.092747448077	250.777886958768	574.123117732592	464.245887843041	197.028080858067	545.803179228050	630.081892028720	132.893806234456	584.583149200142	521.001184290416	134.734308523280	618.009030077861	692.108728841119	30.426923604252	609.792840955977	698.417860294586	37.528548012659	406.338144346587	772.488055742886	35.122996047361	325.411568699879	855.521363671630	96.054260726119	352.292613992484	984.214029540928	43.970063020690	324.068257364027	723.640039501671	1083.983735934886	150.807400694471	864.179938454634	863.009260095606	134.602128213455	829.840368104142	1080.684176792089	711.487392048737	1031.784746648109	928.208752769983	660.165391944048	
94	20.658857142857	807.872614308881	960.407243895093	287.409487155290	598.804642369222	1001.610922763039	454.202710350875	757.135635623719	1436.195990340566	276.110681894137	870.630097815526	1363.918899808264	428.897029085507	796.205601874907	1432.740559272621	610.080077436312	766.349848703192	1493.827557272281	427.821706650641	830.168353380279	937.366603430816	560.248642281307	885.390966894911	743.155335811336	539.785601703443	818.750838965391	630.714589712459	610.324442331915	902.974869852385	575.688723975703	535.651934711912	900.291371040474	463.568595836960	558.625493930223	872.071677407997	756.958852615835	320.751351977028	792.769273303269	634.118574437824	266.476433733046	883.005725727453	563.389951142285	330.724675450947	888.892307850193	491.537470058246	342.241026654912	861.138728400009	417.032348978908	336.923385343857	772.805258938259	301.532991606567	288.254507417426	821.237237751512	192.434916033001	362.509029714994	819.840835177716	396.467705923550	563.577792926448	696.587568073569	363.676441628124	623.374374957566	675.349629085100	256.600481915243	573.171498460655	469.930614655415	209.410681443464	544.588215951224	633.339720784127	138.485894678121	583.772826828550	524.117055870246	144.783351475570	617.062500285924	691.049439995692	30.816543030263	609.561193331759	691.711710251977	37.557666469738	406.200339269233	765.774655396115	35.080884163325	325.266140576870	848.883705930439	95.953947921735	352.119799240236	977.566264564275	43.677787026011	323.979423054950	730.107925918281	1084.642810189670	145.892477311168	879.794888440605	869.767453752588	130.005657725300	820.132373306046	1079.503764153726	709.518784435922	1012.531625677330	912.778828487281	663.465331702656	
95	20.672285714286	807.175741659068	960.606094888270	285.621852380041	597.450825192562	1001.779088945457	451.684514800908	757.566512273540	1436.457790923336	274.022047852034	869.980463060861	1363.976548534639	427.561663308693	794.385993435120	1432.745355528611	608.314766798984	766.127216812903	1494.134826954842	425.791309298142	828.542737351147	937.968604824560	558.712313326218	888.316337103896	746.748093178584	537.755385561131	824.992172814871	632.983672792372	608.964209529853	910.656587455213	579.779941481372	534.192529989270	910.199087617250	466.833475528163	557.244400886765	869.862310991273	756.175731626315	318.500873148665	789.085205085470	634.091646510228	264.830100259921	878.660591050693	562.591208081807	328.982750914526	883.809888478738	490.879553609416	340.840724901018	855.896361980028	416.561553394745	335.695083225864	767.220667459145	301.272949931535	287.248471556390	815.091490393027	192.205740072199	361.938928750357	828.925550570692	399.674739776358	562.238328492557	705.009152644072	368.994066976068	621.999207045713	682.133945749225	262.109511291146	572.072628645992	476.436486510404	219.986995139580	543.241009107498	637.863739260810	143.916375610908	582.794653613440	528.600043910329	153.635488361914	615.958371832817	692.121419744541	31.794046884555	609.079244176362	684.999357229653	37.599465395427	406.060543826290	759.060295532854	35.046702417308	325.123487365696	842.239745235242	95.870255979417	351.937143039239	970.906390003204	43.420824817753	323.886094475429	736.564306359123	1085.448889106875	141.234775927409	895.104786417453	877.054925797550	125.700401978781	810.421728066660	1078.750018103357	707.834091359514	992.010592347592	898.360645974878	666.875290244511	
